<svg width="132" height="116" viewBox="0 0 132 116" fill="none" xmlns="http://www.w3.org/2000/svg">
<g opacity="0.3">
<mask id="mask0" mask-type="alpha" maskUnits="userSpaceOnUse" x="0" y="0" width="11" height="11">
<path d="M5.22838 10.4262C8.11594 10.4262 10.4568 8.09243 10.4568 5.21367C10.4568 2.3349 8.11594 0.0012207 5.22838 0.0012207C2.34082 0.0012207 0 2.3349 0 5.21367C0 8.09243 2.34082 10.4262 5.22838 10.4262Z" fill="url(#paint0_linear)"/>
</mask>
<g mask="url(#mask0)">
<path d="M5.22838 10.4262C8.11594 10.4262 10.4568 8.09243 10.4568 5.21367C10.4568 2.3349 8.11594 0.0012207 5.22838 0.0012207C2.34082 0.0012207 0 2.3349 0 5.21367C0 8.09243 2.34082 10.4262 5.22838 10.4262Z" fill="url(#paint1_linear)"/>
</g>
<mask id="mask1" mask-type="alpha" maskUnits="userSpaceOnUse" x="30" y="0" width="11" height="11">
<path d="M35.5095 10.4262C38.397 10.4262 40.7378 8.09243 40.7378 5.21367C40.7378 2.3349 38.397 0.0012207 35.5095 0.0012207C32.6219 0.0012207 30.2811 2.3349 30.2811 5.21367C30.2811 8.09243 32.6219 10.4262 35.5095 10.4262Z" fill="url(#paint2_linear)"/>
</mask>
<g mask="url(#mask1)">
<path d="M35.5095 10.4262C38.397 10.4262 40.7378 8.09243 40.7378 5.21367C40.7378 2.3349 38.397 0.0012207 35.5095 0.0012207C32.6219 0.0012207 30.2811 2.3349 30.2811 5.21367C30.2811 8.09243 32.6219 10.4262 35.5095 10.4262Z" fill="url(#paint3_linear)"/>
</g>
<mask id="mask2" mask-type="alpha" maskUnits="userSpaceOnUse" x="60" y="0" width="12" height="11">
<path d="M65.7905 10.4262C68.6781 10.4262 71.0189 8.09243 71.0189 5.21367C71.0189 2.3349 68.6781 0.0012207 65.7905 0.0012207C62.9029 0.0012207 60.5621 2.3349 60.5621 5.21367C60.5621 8.09243 62.9029 10.4262 65.7905 10.4262Z" fill="url(#paint4_linear)"/>
</mask>
<g mask="url(#mask2)">
<path d="M65.7905 10.4262C68.6781 10.4262 71.0189 8.09243 71.0189 5.21367C71.0189 2.3349 68.6781 0.0012207 65.7905 0.0012207C62.9029 0.0012207 60.5621 2.3349 60.5621 5.21367C60.5621 8.09243 62.9029 10.4262 65.7905 10.4262Z" fill="url(#paint5_linear)"/>
</g>
<mask id="mask3" mask-type="alpha" maskUnits="userSpaceOnUse" x="90" y="0" width="12" height="11">
<path d="M96.0716 10.4262C98.9592 10.4262 101.3 8.09243 101.3 5.21367C101.3 2.3349 98.9592 0.0012207 96.0716 0.0012207C93.184 0.0012207 90.8432 2.3349 90.8432 5.21367C90.8432 8.09243 93.184 10.4262 96.0716 10.4262Z" fill="url(#paint6_linear)"/>
</mask>
<g mask="url(#mask3)">
<path d="M96.0716 10.4262C98.9592 10.4262 101.3 8.09243 101.3 5.21367C101.3 2.3349 98.9592 0.0012207 96.0716 0.0012207C93.184 0.0012207 90.8432 2.3349 90.8432 5.21367C90.8432 8.09243 93.184 10.4262 96.0716 10.4262Z" fill="url(#paint7_linear)"/>
</g>
<mask id="mask4" mask-type="alpha" maskUnits="userSpaceOnUse" x="121" y="0" width="11" height="11">
<path d="M126.353 10.4262C129.24 10.4262 131.581 8.09243 131.581 5.21367C131.581 2.3349 129.24 0.0012207 126.353 0.0012207C123.465 0.0012207 121.124 2.3349 121.124 5.21367C121.124 8.09243 123.465 10.4262 126.353 10.4262Z" fill="url(#paint8_linear)"/>
</mask>
<g mask="url(#mask4)">
<path d="M126.353 10.4262C129.24 10.4262 131.581 8.09243 131.581 5.21367C131.581 2.3349 129.24 0.0012207 126.353 0.0012207C123.465 0.0012207 121.124 2.3349 121.124 5.21367C121.124 8.09243 123.465 10.4262 126.353 10.4262Z" fill="url(#paint9_linear)"/>
</g>
<mask id="mask5" mask-type="alpha" maskUnits="userSpaceOnUse" x="0" y="26" width="11" height="11">
<path d="M5.22838 36.597C8.11594 36.597 10.4568 34.2633 10.4568 31.3845C10.4568 28.5058 8.11594 26.1721 5.22838 26.1721C2.34082 26.1721 0 28.5058 0 31.3845C0 34.2633 2.34082 36.597 5.22838 36.597Z" fill="url(#paint10_linear)"/>
</mask>
<g mask="url(#mask5)">
<path d="M5.22838 36.597C8.11594 36.597 10.4568 34.2633 10.4568 31.3845C10.4568 28.5058 8.11594 26.1721 5.22838 26.1721C2.34082 26.1721 0 28.5058 0 31.3845C0 34.2633 2.34082 36.597 5.22838 36.597Z" fill="url(#paint11_linear)"/>
</g>
<mask id="mask6" mask-type="alpha" maskUnits="userSpaceOnUse" x="30" y="26" width="11" height="11">
<path d="M35.5095 36.597C38.397 36.597 40.7378 34.2633 40.7378 31.3845C40.7378 28.5058 38.397 26.1721 35.5095 26.1721C32.6219 26.1721 30.2811 28.5058 30.2811 31.3845C30.2811 34.2633 32.6219 36.597 35.5095 36.597Z" fill="url(#paint12_linear)"/>
</mask>
<g mask="url(#mask6)">
<path d="M35.5095 36.597C38.397 36.597 40.7378 34.2633 40.7378 31.3845C40.7378 28.5058 38.397 26.1721 35.5095 26.1721C32.6219 26.1721 30.2811 28.5058 30.2811 31.3845C30.2811 34.2633 32.6219 36.597 35.5095 36.597Z" fill="url(#paint13_linear)"/>
</g>
<mask id="mask7" mask-type="alpha" maskUnits="userSpaceOnUse" x="60" y="26" width="12" height="11">
<path d="M65.7905 36.597C68.6781 36.597 71.0189 34.2633 71.0189 31.3845C71.0189 28.5058 68.6781 26.1721 65.7905 26.1721C62.9029 26.1721 60.5621 28.5058 60.5621 31.3845C60.5621 34.2633 62.9029 36.597 65.7905 36.597Z" fill="url(#paint14_linear)"/>
</mask>
<g mask="url(#mask7)">
<path d="M65.7905 36.597C68.6781 36.597 71.0189 34.2633 71.0189 31.3845C71.0189 28.5058 68.6781 26.1721 65.7905 26.1721C62.9029 26.1721 60.5621 28.5058 60.5621 31.3845C60.5621 34.2633 62.9029 36.597 65.7905 36.597Z" fill="url(#paint15_linear)"/>
</g>
<mask id="mask8" mask-type="alpha" maskUnits="userSpaceOnUse" x="90" y="26" width="12" height="11">
<path d="M96.0716 36.597C98.9592 36.597 101.3 34.2633 101.3 31.3845C101.3 28.5058 98.9592 26.1721 96.0716 26.1721C93.184 26.1721 90.8432 28.5058 90.8432 31.3845C90.8432 34.2633 93.184 36.597 96.0716 36.597Z" fill="url(#paint16_linear)"/>
</mask>
<g mask="url(#mask8)">
<path d="M96.0716 36.597C98.9592 36.597 101.3 34.2633 101.3 31.3845C101.3 28.5058 98.9592 26.1721 96.0716 26.1721C93.184 26.1721 90.8432 28.5058 90.8432 31.3845C90.8432 34.2633 93.184 36.597 96.0716 36.597Z" fill="url(#paint17_linear)"/>
</g>
<mask id="mask9" mask-type="alpha" maskUnits="userSpaceOnUse" x="121" y="26" width="11" height="11">
<path d="M126.353 36.597C129.24 36.597 131.581 34.2633 131.581 31.3845C131.581 28.5058 129.24 26.1721 126.353 26.1721C123.465 26.1721 121.124 28.5058 121.124 31.3845C121.124 34.2633 123.465 36.597 126.353 36.597Z" fill="url(#paint18_linear)"/>
</mask>
<g mask="url(#mask9)">
<path d="M126.353 36.597C129.24 36.597 131.581 34.2633 131.581 31.3845C131.581 28.5058 129.24 26.1721 126.353 26.1721C123.465 26.1721 121.124 28.5058 121.124 31.3845C121.124 34.2633 123.465 36.597 126.353 36.597Z" fill="url(#paint19_linear)"/>
</g>
<mask id="mask10" mask-type="alpha" maskUnits="userSpaceOnUse" x="0" y="52" width="11" height="11">
<path d="M5.22838 62.7138C8.11594 62.7138 10.4568 60.3801 10.4568 57.5013C10.4568 54.6225 8.11594 52.2888 5.22838 52.2888C2.34082 52.2888 0 54.6225 0 57.5013C0 60.3801 2.34082 62.7138 5.22838 62.7138Z" fill="url(#paint20_linear)"/>
</mask>
<g mask="url(#mask10)">
<path d="M5.22838 62.7138C8.11594 62.7138 10.4568 60.3801 10.4568 57.5013C10.4568 54.6225 8.11594 52.2888 5.22838 52.2888C2.34082 52.2888 0 54.6225 0 57.5013C0 60.3801 2.34082 62.7138 5.22838 62.7138Z" fill="url(#paint21_linear)"/>
</g>
<mask id="mask11" mask-type="alpha" maskUnits="userSpaceOnUse" x="30" y="52" width="11" height="11">
<path d="M35.5095 62.7138C38.397 62.7138 40.7378 60.3801 40.7378 57.5013C40.7378 54.6225 38.397 52.2888 35.5095 52.2888C32.6219 52.2888 30.2811 54.6225 30.2811 57.5013C30.2811 60.3801 32.6219 62.7138 35.5095 62.7138Z" fill="url(#paint22_linear)"/>
</mask>
<g mask="url(#mask11)">
<path d="M35.5095 62.7138C38.397 62.7138 40.7378 60.3801 40.7378 57.5013C40.7378 54.6225 38.397 52.2888 35.5095 52.2888C32.6219 52.2888 30.2811 54.6225 30.2811 57.5013C30.2811 60.3801 32.6219 62.7138 35.5095 62.7138Z" fill="url(#paint23_linear)"/>
</g>
<mask id="mask12" mask-type="alpha" maskUnits="userSpaceOnUse" x="60" y="52" width="12" height="11">
<path d="M65.7905 62.7138C68.6781 62.7138 71.0189 60.3801 71.0189 57.5013C71.0189 54.6225 68.6781 52.2888 65.7905 52.2888C62.9029 52.2888 60.5621 54.6225 60.5621 57.5013C60.5621 60.3801 62.9029 62.7138 65.7905 62.7138Z" fill="url(#paint24_linear)"/>
</mask>
<g mask="url(#mask12)">
<path d="M65.7905 62.7138C68.6781 62.7138 71.0189 60.3801 71.0189 57.5013C71.0189 54.6225 68.6781 52.2888 65.7905 52.2888C62.9029 52.2888 60.5621 54.6225 60.5621 57.5013C60.5621 60.3801 62.9029 62.7138 65.7905 62.7138Z" fill="url(#paint25_linear)"/>
</g>
<mask id="mask13" mask-type="alpha" maskUnits="userSpaceOnUse" x="90" y="52" width="12" height="11">
<path d="M96.0716 62.7138C98.9592 62.7138 101.3 60.3801 101.3 57.5013C101.3 54.6225 98.9592 52.2888 96.0716 52.2888C93.184 52.2888 90.8432 54.6225 90.8432 57.5013C90.8432 60.3801 93.184 62.7138 96.0716 62.7138Z" fill="url(#paint26_linear)"/>
</mask>
<g mask="url(#mask13)">
<path d="M96.0716 62.7138C98.9592 62.7138 101.3 60.3801 101.3 57.5013C101.3 54.6225 98.9592 52.2888 96.0716 52.2888C93.184 52.2888 90.8432 54.6225 90.8432 57.5013C90.8432 60.3801 93.184 62.7138 96.0716 62.7138Z" fill="url(#paint27_linear)"/>
</g>
<mask id="mask14" mask-type="alpha" maskUnits="userSpaceOnUse" x="121" y="52" width="11" height="11">
<path d="M126.353 62.7138C129.24 62.7138 131.581 60.3801 131.581 57.5013C131.581 54.6225 129.24 52.2888 126.353 52.2888C123.465 52.2888 121.124 54.6225 121.124 57.5013C121.124 60.3801 123.465 62.7138 126.353 62.7138Z" fill="url(#paint28_linear)"/>
</mask>
<g mask="url(#mask14)">
<path d="M126.353 62.7138C129.24 62.7138 131.581 60.3801 131.581 57.5013C131.581 54.6225 129.24 52.2888 126.353 52.2888C123.465 52.2888 121.124 54.6225 121.124 57.5013C121.124 60.3801 123.465 62.7138 126.353 62.7138Z" fill="url(#paint29_linear)"/>
</g>
<mask id="mask15" mask-type="alpha" maskUnits="userSpaceOnUse" x="0" y="78" width="11" height="11">
<path d="M5.22838 88.8844C8.11594 88.8844 10.4568 86.5507 10.4568 83.6719C10.4568 80.7932 8.11594 78.4595 5.22838 78.4595C2.34082 78.4595 0 80.7932 0 83.6719C0 86.5507 2.34082 88.8844 5.22838 88.8844Z" fill="url(#paint30_linear)"/>
</mask>
<g mask="url(#mask15)">
<path d="M5.22838 88.8844C8.11594 88.8844 10.4568 86.5507 10.4568 83.6719C10.4568 80.7932 8.11594 78.4595 5.22838 78.4595C2.34082 78.4595 0 80.7932 0 83.6719C0 86.5507 2.34082 88.8844 5.22838 88.8844Z" fill="url(#paint31_linear)"/>
</g>
<mask id="mask16" mask-type="alpha" maskUnits="userSpaceOnUse" x="30" y="78" width="11" height="11">
<path d="M35.5095 88.8844C38.397 88.8844 40.7378 86.5507 40.7378 83.6719C40.7378 80.7932 38.397 78.4595 35.5095 78.4595C32.6219 78.4595 30.2811 80.7932 30.2811 83.6719C30.2811 86.5507 32.6219 88.8844 35.5095 88.8844Z" fill="url(#paint32_linear)"/>
</mask>
<g mask="url(#mask16)">
<path d="M35.5095 88.8844C38.397 88.8844 40.7378 86.5507 40.7378 83.6719C40.7378 80.7932 38.397 78.4595 35.5095 78.4595C32.6219 78.4595 30.2811 80.7932 30.2811 83.6719C30.2811 86.5507 32.6219 88.8844 35.5095 88.8844Z" fill="url(#paint33_linear)"/>
</g>
<mask id="mask17" mask-type="alpha" maskUnits="userSpaceOnUse" x="60" y="78" width="12" height="11">
<path d="M65.7905 88.8844C68.6781 88.8844 71.0189 86.5507 71.0189 83.6719C71.0189 80.7932 68.6781 78.4595 65.7905 78.4595C62.9029 78.4595 60.5621 80.7932 60.5621 83.6719C60.5621 86.5507 62.9029 88.8844 65.7905 88.8844Z" fill="url(#paint34_linear)"/>
</mask>
<g mask="url(#mask17)">
<path d="M65.7905 88.8844C68.6781 88.8844 71.0189 86.5507 71.0189 83.6719C71.0189 80.7932 68.6781 78.4595 65.7905 78.4595C62.9029 78.4595 60.5621 80.7932 60.5621 83.6719C60.5621 86.5507 62.9029 88.8844 65.7905 88.8844Z" fill="url(#paint35_linear)"/>
</g>
<mask id="mask18" mask-type="alpha" maskUnits="userSpaceOnUse" x="90" y="78" width="12" height="11">
<path d="M96.0716 88.8844C98.9592 88.8844 101.3 86.5507 101.3 83.6719C101.3 80.7932 98.9592 78.4595 96.0716 78.4595C93.184 78.4595 90.8432 80.7932 90.8432 83.6719C90.8432 86.5507 93.184 88.8844 96.0716 88.8844Z" fill="url(#paint36_linear)"/>
</mask>
<g mask="url(#mask18)">
<path d="M96.0716 88.8844C98.9592 88.8844 101.3 86.5507 101.3 83.6719C101.3 80.7932 98.9592 78.4595 96.0716 78.4595C93.184 78.4595 90.8432 80.7932 90.8432 83.6719C90.8432 86.5507 93.184 88.8844 96.0716 88.8844Z" fill="url(#paint37_linear)"/>
</g>
<mask id="mask19" mask-type="alpha" maskUnits="userSpaceOnUse" x="121" y="78" width="11" height="11">
<path d="M126.353 88.8844C129.24 88.8844 131.581 86.5507 131.581 83.6719C131.581 80.7932 129.24 78.4595 126.353 78.4595C123.465 78.4595 121.124 80.7932 121.124 83.6719C121.124 86.5507 123.465 88.8844 126.353 88.8844Z" fill="url(#paint38_linear)"/>
</mask>
<g mask="url(#mask19)">
<path d="M126.353 88.8844C129.24 88.8844 131.581 86.5507 131.581 83.6719C131.581 80.7932 129.24 78.4595 126.353 78.4595C123.465 78.4595 121.124 80.7932 121.124 83.6719C121.124 86.5507 123.465 88.8844 126.353 88.8844Z" fill="url(#paint39_linear)"/>
</g>
<mask id="mask20" mask-type="alpha" maskUnits="userSpaceOnUse" x="0" y="104" width="11" height="12">
<path d="M5.22838 115.001C8.11594 115.001 10.4568 112.667 10.4568 109.789C10.4568 106.91 8.11594 104.576 5.22838 104.576C2.34082 104.576 0 106.91 0 109.789C0 112.667 2.34082 115.001 5.22838 115.001Z" fill="url(#paint40_linear)"/>
</mask>
<g mask="url(#mask20)">
<path d="M5.22838 115.001C8.11594 115.001 10.4568 112.667 10.4568 109.789C10.4568 106.91 8.11594 104.576 5.22838 104.576C2.34082 104.576 0 106.91 0 109.789C0 112.667 2.34082 115.001 5.22838 115.001Z" fill="url(#paint41_linear)"/>
</g>
<mask id="mask21" mask-type="alpha" maskUnits="userSpaceOnUse" x="30" y="104" width="11" height="12">
<path d="M35.5095 115.001C38.397 115.001 40.7378 112.667 40.7378 109.789C40.7378 106.91 38.397 104.576 35.5095 104.576C32.6219 104.576 30.2811 106.91 30.2811 109.789C30.2811 112.667 32.6219 115.001 35.5095 115.001Z" fill="url(#paint42_linear)"/>
</mask>
<g mask="url(#mask21)">
<path d="M35.5095 115.001C38.397 115.001 40.7378 112.667 40.7378 109.789C40.7378 106.91 38.397 104.576 35.5095 104.576C32.6219 104.576 30.2811 106.91 30.2811 109.789C30.2811 112.667 32.6219 115.001 35.5095 115.001Z" fill="url(#paint43_linear)"/>
</g>
<mask id="mask22" mask-type="alpha" maskUnits="userSpaceOnUse" x="60" y="104" width="12" height="12">
<path d="M65.7905 115.001C68.6781 115.001 71.0189 112.667 71.0189 109.789C71.0189 106.91 68.6781 104.576 65.7905 104.576C62.9029 104.576 60.5621 106.91 60.5621 109.789C60.5621 112.667 62.9029 115.001 65.7905 115.001Z" fill="url(#paint44_linear)"/>
</mask>
<g mask="url(#mask22)">
<path d="M65.7905 115.001C68.6781 115.001 71.0189 112.667 71.0189 109.789C71.0189 106.91 68.6781 104.576 65.7905 104.576C62.9029 104.576 60.5621 106.91 60.5621 109.789C60.5621 112.667 62.9029 115.001 65.7905 115.001Z" fill="url(#paint45_linear)"/>
</g>
<mask id="mask23" mask-type="alpha" maskUnits="userSpaceOnUse" x="90" y="104" width="12" height="12">
<path d="M96.0716 115.001C98.9592 115.001 101.3 112.667 101.3 109.789C101.3 106.91 98.9592 104.576 96.0716 104.576C93.184 104.576 90.8432 106.91 90.8432 109.789C90.8432 112.667 93.184 115.001 96.0716 115.001Z" fill="url(#paint46_linear)"/>
</mask>
<g mask="url(#mask23)">
<path d="M96.0716 115.001C98.9592 115.001 101.3 112.667 101.3 109.789C101.3 106.91 98.9592 104.576 96.0716 104.576C93.184 104.576 90.8432 106.91 90.8432 109.789C90.8432 112.667 93.184 115.001 96.0716 115.001Z" fill="url(#paint47_linear)"/>
</g>
<mask id="mask24" mask-type="alpha" maskUnits="userSpaceOnUse" x="121" y="104" width="11" height="12">
<path d="M126.353 115.001C129.24 115.001 131.581 112.667 131.581 109.789C131.581 106.91 129.24 104.576 126.353 104.576C123.465 104.576 121.124 106.91 121.124 109.789C121.124 112.667 123.465 115.001 126.353 115.001Z" fill="url(#paint48_linear)"/>
</mask>
<g mask="url(#mask24)">
<path d="M126.353 115.001C129.24 115.001 131.581 112.667 131.581 109.789C131.581 106.91 129.24 104.576 126.353 104.576C123.465 104.576 121.124 106.91 121.124 109.789C121.124 112.667 123.465 115.001 126.353 115.001Z" fill="url(#paint49_linear)"/>
</g>
</g>
<defs>
<linearGradient id="paint0_linear" x1="54.996" y1="131.135" x2="-16.4057" y2="-50.6688" gradientUnits="userSpaceOnUse">
<stop/>
<stop offset="1" stop-color="white"/>
</linearGradient>
<linearGradient id="paint1_linear" x1="54.996" y1="131.135" x2="-16.4057" y2="-50.6688" gradientUnits="userSpaceOnUse">
<stop stop-color="#97C3F9"/>
<stop offset="1" stop-color="#93C1F9"/>
</linearGradient>
<linearGradient id="paint2_linear" x1="81.2005" y1="120.844" x2="9.79889" y2="-60.9601" gradientUnits="userSpaceOnUse">
<stop/>
<stop offset="1" stop-color="white"/>
</linearGradient>
<linearGradient id="paint3_linear" x1="81.2005" y1="120.844" x2="9.79889" y2="-60.9601" gradientUnits="userSpaceOnUse">
<stop stop-color="#97C3F9"/>
<stop offset="1" stop-color="#93C1F9"/>
</linearGradient>
<linearGradient id="paint4_linear" x1="107.405" y1="110.552" x2="36.0033" y2="-71.2513" gradientUnits="userSpaceOnUse">
<stop/>
<stop offset="1" stop-color="white"/>
</linearGradient>
<linearGradient id="paint5_linear" x1="107.405" y1="110.552" x2="36.0033" y2="-71.2513" gradientUnits="userSpaceOnUse">
<stop stop-color="#97C3F9"/>
<stop offset="1" stop-color="#93C1F9"/>
</linearGradient>
<linearGradient id="paint6_linear" x1="133.609" y1="100.261" x2="62.2075" y2="-81.5432" gradientUnits="userSpaceOnUse">
<stop/>
<stop offset="1" stop-color="white"/>
</linearGradient>
<linearGradient id="paint7_linear" x1="133.609" y1="100.261" x2="62.2075" y2="-81.5432" gradientUnits="userSpaceOnUse">
<stop stop-color="#97C3F9"/>
<stop offset="1" stop-color="#93C1F9"/>
</linearGradient>
<linearGradient id="paint8_linear" x1="159.813" y1="89.9692" x2="88.4119" y2="-91.8347" gradientUnits="userSpaceOnUse">
<stop/>
<stop offset="1" stop-color="white"/>
</linearGradient>
<linearGradient id="paint9_linear" x1="159.813" y1="89.9692" x2="88.4119" y2="-91.8347" gradientUnits="userSpaceOnUse">
<stop stop-color="#97C3F9"/>
<stop offset="1" stop-color="#93C1F9"/>
</linearGradient>
<linearGradient id="paint10_linear" x1="46.0538" y1="134.646" x2="-25.3466" y2="-47.1559" gradientUnits="userSpaceOnUse">
<stop/>
<stop offset="1" stop-color="white"/>
</linearGradient>
<linearGradient id="paint11_linear" x1="46.0538" y1="134.646" x2="-25.3466" y2="-47.1559" gradientUnits="userSpaceOnUse">
<stop stop-color="#97C3F9"/>
<stop offset="1" stop-color="#93C1F9"/>
</linearGradient>
<linearGradient id="paint12_linear" x1="72.2581" y1="124.355" x2="0.857718" y2="-57.4478" gradientUnits="userSpaceOnUse">
<stop/>
<stop offset="1" stop-color="white"/>
</linearGradient>
<linearGradient id="paint13_linear" x1="72.2581" y1="124.355" x2="0.857718" y2="-57.4478" gradientUnits="userSpaceOnUse">
<stop stop-color="#97C3F9"/>
<stop offset="1" stop-color="#93C1F9"/>
</linearGradient>
<linearGradient id="paint14_linear" x1="98.4624" y1="114.063" x2="27.062" y2="-67.7392" gradientUnits="userSpaceOnUse">
<stop/>
<stop offset="1" stop-color="white"/>
</linearGradient>
<linearGradient id="paint15_linear" x1="98.4624" y1="114.063" x2="27.062" y2="-67.7392" gradientUnits="userSpaceOnUse">
<stop stop-color="#97C3F9"/>
<stop offset="1" stop-color="#93C1F9"/>
</linearGradient>
<linearGradient id="paint16_linear" x1="124.667" y1="103.772" x2="53.2663" y2="-78.0306" gradientUnits="userSpaceOnUse">
<stop/>
<stop offset="1" stop-color="white"/>
</linearGradient>
<linearGradient id="paint17_linear" x1="124.667" y1="103.772" x2="53.2663" y2="-78.0306" gradientUnits="userSpaceOnUse">
<stop stop-color="#97C3F9"/>
<stop offset="1" stop-color="#93C1F9"/>
</linearGradient>
<linearGradient id="paint18_linear" x1="150.871" y1="93.4805" x2="79.4707" y2="-88.322" gradientUnits="userSpaceOnUse">
<stop/>
<stop offset="1" stop-color="white"/>
</linearGradient>
<linearGradient id="paint19_linear" x1="150.871" y1="93.4805" x2="79.4707" y2="-88.322" gradientUnits="userSpaceOnUse">
<stop stop-color="#97C3F9"/>
<stop offset="1" stop-color="#93C1F9"/>
</linearGradient>
<linearGradient id="paint20_linear" x1="37.1113" y1="138.159" x2="-34.2903" y2="-43.6445" gradientUnits="userSpaceOnUse">
<stop/>
<stop offset="1" stop-color="white"/>
</linearGradient>
<linearGradient id="paint21_linear" x1="37.1113" y1="138.159" x2="-34.2903" y2="-43.6445" gradientUnits="userSpaceOnUse">
<stop stop-color="#97C3F9"/>
<stop offset="1" stop-color="#93C1F9"/>
</linearGradient>
<linearGradient id="paint22_linear" x1="63.3157" y1="127.868" x2="-8.0859" y2="-53.9361" gradientUnits="userSpaceOnUse">
<stop/>
<stop offset="1" stop-color="white"/>
</linearGradient>
<linearGradient id="paint23_linear" x1="63.3157" y1="127.868" x2="-8.0859" y2="-53.9361" gradientUnits="userSpaceOnUse">
<stop stop-color="#97C3F9"/>
<stop offset="1" stop-color="#93C1F9"/>
</linearGradient>
<linearGradient id="paint24_linear" x1="89.52" y1="117.576" x2="18.1185" y2="-64.2275" gradientUnits="userSpaceOnUse">
<stop/>
<stop offset="1" stop-color="white"/>
</linearGradient>
<linearGradient id="paint25_linear" x1="89.52" y1="117.576" x2="18.1185" y2="-64.2275" gradientUnits="userSpaceOnUse">
<stop stop-color="#97C3F9"/>
<stop offset="1" stop-color="#93C1F9"/>
</linearGradient>
<linearGradient id="paint26_linear" x1="115.724" y1="107.285" x2="44.3227" y2="-74.5192" gradientUnits="userSpaceOnUse">
<stop/>
<stop offset="1" stop-color="white"/>
</linearGradient>
<linearGradient id="paint27_linear" x1="115.724" y1="107.285" x2="44.3227" y2="-74.5192" gradientUnits="userSpaceOnUse">
<stop stop-color="#97C3F9"/>
<stop offset="1" stop-color="#93C1F9"/>
</linearGradient>
<linearGradient id="paint28_linear" x1="141.929" y1="96.9932" x2="70.5271" y2="-84.8106" gradientUnits="userSpaceOnUse">
<stop/>
<stop offset="1" stop-color="white"/>
</linearGradient>
<linearGradient id="paint29_linear" x1="141.929" y1="96.9932" x2="70.5271" y2="-84.8106" gradientUnits="userSpaceOnUse">
<stop stop-color="#97C3F9"/>
<stop offset="1" stop-color="#93C1F9"/>
</linearGradient>
<linearGradient id="paint30_linear" x1="28.169" y1="141.671" x2="-43.2327" y2="-40.1328" gradientUnits="userSpaceOnUse">
<stop/>
<stop offset="1" stop-color="white"/>
</linearGradient>
<linearGradient id="paint31_linear" x1="28.169" y1="141.671" x2="-43.2327" y2="-40.1328" gradientUnits="userSpaceOnUse">
<stop stop-color="#97C3F9"/>
<stop offset="1" stop-color="#93C1F9"/>
</linearGradient>
<linearGradient id="paint32_linear" x1="54.3734" y1="131.38" x2="-17.0283" y2="-50.4243" gradientUnits="userSpaceOnUse">
<stop/>
<stop offset="1" stop-color="white"/>
</linearGradient>
<linearGradient id="paint33_linear" x1="54.3734" y1="131.38" x2="-17.0283" y2="-50.4243" gradientUnits="userSpaceOnUse">
<stop stop-color="#97C3F9"/>
<stop offset="1" stop-color="#93C1F9"/>
</linearGradient>
<linearGradient id="paint34_linear" x1="80.5776" y1="121.088" x2="9.17606" y2="-60.7157" gradientUnits="userSpaceOnUse">
<stop/>
<stop offset="1" stop-color="white"/>
</linearGradient>
<linearGradient id="paint35_linear" x1="80.5776" y1="121.088" x2="9.17606" y2="-60.7157" gradientUnits="userSpaceOnUse">
<stop stop-color="#97C3F9"/>
<stop offset="1" stop-color="#93C1F9"/>
</linearGradient>
<linearGradient id="paint36_linear" x1="106.782" y1="110.796" x2="35.3804" y2="-71.0074" gradientUnits="userSpaceOnUse">
<stop/>
<stop offset="1" stop-color="white"/>
</linearGradient>
<linearGradient id="paint37_linear" x1="106.782" y1="110.796" x2="35.3804" y2="-71.0074" gradientUnits="userSpaceOnUse">
<stop stop-color="#97C3F9"/>
<stop offset="1" stop-color="#93C1F9"/>
</linearGradient>
<linearGradient id="paint38_linear" x1="132.986" y1="100.505" x2="61.5847" y2="-81.2989" gradientUnits="userSpaceOnUse">
<stop/>
<stop offset="1" stop-color="white"/>
</linearGradient>
<linearGradient id="paint39_linear" x1="132.986" y1="100.505" x2="61.5847" y2="-81.2989" gradientUnits="userSpaceOnUse">
<stop stop-color="#97C3F9"/>
<stop offset="1" stop-color="#93C1F9"/>
</linearGradient>
<linearGradient id="paint40_linear" x1="19.2266" y1="145.183" x2="-52.1751" y2="-36.6207" gradientUnits="userSpaceOnUse">
<stop/>
<stop offset="1" stop-color="white"/>
</linearGradient>
<linearGradient id="paint41_linear" x1="19.2266" y1="145.183" x2="-52.1751" y2="-36.6207" gradientUnits="userSpaceOnUse">
<stop stop-color="#97C3F9"/>
<stop offset="1" stop-color="#93C1F9"/>
</linearGradient>
<linearGradient id="paint42_linear" x1="45.431" y1="134.892" x2="-25.9706" y2="-46.9122" gradientUnits="userSpaceOnUse">
<stop/>
<stop offset="1" stop-color="white"/>
</linearGradient>
<linearGradient id="paint43_linear" x1="45.431" y1="134.892" x2="-25.9706" y2="-46.9122" gradientUnits="userSpaceOnUse">
<stop stop-color="#97C3F9"/>
<stop offset="1" stop-color="#93C1F9"/>
</linearGradient>
<linearGradient id="paint44_linear" x1="71.6353" y1="124.6" x2="0.233718" y2="-57.2036" gradientUnits="userSpaceOnUse">
<stop/>
<stop offset="1" stop-color="white"/>
</linearGradient>
<linearGradient id="paint45_linear" x1="71.6353" y1="124.6" x2="0.233718" y2="-57.2036" gradientUnits="userSpaceOnUse">
<stop stop-color="#97C3F9"/>
<stop offset="1" stop-color="#93C1F9"/>
</linearGradient>
<linearGradient id="paint46_linear" x1="97.8397" y1="114.309" x2="26.438" y2="-67.4952" gradientUnits="userSpaceOnUse">
<stop/>
<stop offset="1" stop-color="white"/>
</linearGradient>
<linearGradient id="paint47_linear" x1="97.8397" y1="114.309" x2="26.438" y2="-67.4952" gradientUnits="userSpaceOnUse">
<stop stop-color="#97C3F9"/>
<stop offset="1" stop-color="#93C1F9"/>
</linearGradient>
<linearGradient id="paint48_linear" x1="124.044" y1="104.017" x2="52.6424" y2="-77.7867" gradientUnits="userSpaceOnUse">
<stop/>
<stop offset="1" stop-color="white"/>
</linearGradient>
<linearGradient id="paint49_linear" x1="124.044" y1="104.017" x2="52.6424" y2="-77.7867" gradientUnits="userSpaceOnUse">
<stop stop-color="#97C3F9"/>
<stop offset="1" stop-color="#93C1F9"/>
</linearGradient>
</defs>
</svg>
